<svg aria-hidden="true" style="position: absolute; width: 0; height: 0; overflow: hidden;" version="1.1" xmlns="http://www.w3.org/2000/svg" xmlns:xlink="http://www.w3.org/1999/xlink">
<defs>
<symbol id="icon-slider" viewBox="0 0 56 32">
<path fill="#4f2ee8" style="fill: var(--color1, #4f2ee8)" d="M25.4 21.132c0.664 0.668 1.584 1.081 2.6 1.081s1.936-0.413 2.6-1.081l0-0 16.8-16.828c0.664-0.668 1.584-1.082 2.6-1.082 2.025 0 3.666 1.641 3.666 3.666 0 1.008-0.407 1.921-1.066 2.584l-16.824 16.832c-1.99 1.987-4.738 3.216-7.772 3.216s-5.782-1.229-7.772-3.216l-16.836-16.832c-0.658-0.663-1.064-1.576-1.064-2.584 0-2.026 1.642-3.668 3.668-3.668 1.018 0 1.939 0.415 2.604 1.084l0 0 16.792 16.828z"></path>
</symbol>
</defs>
</svg>
